<svg width="0" height="0" class="hidden">
  <symbol xmlns="http://www.w3.org/2000/svg" viewBox="0 0 512 512" id="about">
    <path d="M332.64 64.58C313.18 43.57 286 32 256 32c-30.16 0-57.43 11.5-76.8 32.38-19.58 21.11-29.12 49.8-26.88 80.78C156.76 206.28 203.27 256 256 256s99.16-49.71 103.67-110.82c2.27-30.7-7.33-59.33-27.03-80.6zM432 480H80a31 31 0 01-24.2-11.13c-6.5-7.77-9.12-18.38-7.18-29.11C57.06 392.94 83.4 353.61 124.8 326c36.78-24.51 83.37-38 131.2-38s94.42 13.5 131.2 38c41.4 27.6 67.74 66.93 76.18 113.75 1.94 10.73-.68 21.34-7.18 29.11A31 31 0 01432 480z"></path>
  </symbol>
  <symbol xmlns="http://www.w3.org/2000/svg" viewBox="0 0 512 512" id="blog">
    <path d="M298.39 248a4 4 0 002.86-6.8l-78.4-79.72a4 4 0 00-6.85 2.81V236a12 12 0 0012 12z"></path>
    <path d="M197 267a43.67 43.67 0 01-13-31v-92h-72a64.19 64.19 0 00-64 64v224a64 64 0 0064 64h144a64 64 0 0064-64V280h-92a43.61 43.61 0 01-31-13zM372 120h70.39a4 4 0 002.86-6.8l-78.4-79.72a4 4 0 00-6.85 2.81V108a12 12 0 0012 12z"></path>
    <path d="M372 152a44.34 44.34 0 01-44-44V16H220a60.07 60.07 0 00-60 60v36h42.12A40.81 40.81 0 01231 124.14l109.16 111a41.11 41.11 0 0111.83 29V400h53.05c32.51 0 58.95-26.92 58.95-60V152z"></path>
  </symbol>
  <symbol xmlns="http://www.w3.org/2000/svg" viewBox="0 0 512 512" id="book">
    <path d="M202.24 74C166.11 56.75 115.61 48.3 48 48a31.36 31.36 0 00-17.92 5.33A32 32 0 0016 79.9V366c0 19.34 13.76 33.93 32 33.93 71.07 0 142.36 6.64 185.06 47a4.11 4.11 0 006.94-3V106.82a15.89 15.89 0 00-5.46-12A143 143 0 00202.24 74zM481.92 53.3A31.33 31.33 0 00464 48c-67.61.3-118.11 8.71-154.24 26a143.31 143.31 0 00-32.31 20.78 15.93 15.93 0 00-5.45 12v337.13a3.93 3.93 0 006.68 2.81c25.67-25.5 70.72-46.82 185.36-46.81a32 32 0 0032-32v-288a32 32 0 00-14.12-26.61z"></path>
  </symbol>
  <symbol xmlns="http://www.w3.org/2000/svg" viewBox="0 0 512 512" id="contact">
    <path d="M391 480c-19.52 0-46.94-7.06-88-30-49.93-28-88.55-53.85-138.21-103.38C116.91 298.77 93.61 267.79 61 208.45c-36.84-67-30.56-102.12-23.54-117.13C45.82 73.38 58.16 62.65 74.11 52a176.3 176.3 0 0128.64-15.2c1-.43 1.93-.84 2.76-1.21 4.95-2.23 12.45-5.6 21.95-2 6.34 2.38 12 7.25 20.86 16 18.17 17.92 43 57.83 52.16 77.43 6.15 13.21 10.22 21.93 10.23 31.71 0 11.45-5.76 20.28-12.75 29.81-1.31 1.79-2.61 3.5-3.87 5.16-7.61 10-9.28 12.89-8.18 18.05 2.23 10.37 18.86 41.24 46.19 68.51s57.31 42.85 67.72 45.07c5.38 1.15 8.33-.59 18.65-8.47 1.48-1.13 3-2.3 4.59-3.47 10.66-7.93 19.08-13.54 30.26-13.54h.06c9.73 0 18.06 4.22 31.86 11.18 18 9.08 59.11 33.59 77.14 51.78 8.77 8.84 13.66 14.48 16.05 20.81 3.6 9.53.21 17-2 22-.37.83-.78 1.74-1.21 2.75a176.49 176.49 0 01-15.29 28.58c-10.63 15.9-21.4 28.21-39.38 36.58A67.42 67.42 0 01391 480z"></path>
  </symbol>
  <symbol xmlns="http://www.w3.org/2000/svg" viewBox="0 0 512 512" id="home">
    <path d="M261.56 101.28a8 8 0 00-11.06 0L66.4 277.15a8 8 0 00-2.47 5.79L63.9 448a32 32 0 0032 32H192a16 16 0 0016-16V328a8 8 0 018-8h80a8 8 0 018 8v136a16 16 0 0016 16h96.06a32 32 0 0032-32V282.94a8 8 0 00-2.47-5.79z"></path>
    <path d="M490.91 244.15l-74.8-71.56V64a16 16 0 00-16-16h-48a16 16 0 00-16 16v32l-57.92-55.38C272.77 35.14 264.71 32 256 32c-8.68 0-16.72 3.14-22.14 8.63l-212.7 203.5c-6.22 6-7 15.87-1.34 22.37A16 16 0 0043 267.56L250.5 69.28a8 8 0 0111.06 0l207.52 198.28a16 16 0 0022.59-.44c6.14-6.36 5.63-16.86-.76-22.97z"></path>
  </symbol>
  <symbol xmlns="http://www.w3.org/2000/svg" viewBox="0 0 512 512" id="search">
    <path d="M456.69 421.39L362.6 327.3a173.81 173.81 0 0034.84-104.58C397.44 126.38 319.06 48 222.72 48S48 126.38 48 222.72s78.38 174.72 174.72 174.72A173.81 173.81 0 00327.3 362.6l94.09 94.09a25 25 0 0035.3-35.3zM97.92 222.72a124.8 124.8 0 11124.8 124.8 124.95 124.95 0 01-124.8-124.8z"></path>
  </symbol>
  <symbol xmlns="http://www.w3.org/2000/svg" viewBox="0 0 512 512" id="volume">
    <path d="M479.66 268.7l-32-151.81C441.48 83.77 417.68 64 384 64H128c-16.8 0-31 4.69-42.1 13.94s-18.37 22.31-21.58 38.89l-32 151.87A16.65 16.65 0 0032 272v112a64 64 0 0064 64h320a64 64 0 0064-64V272a16.65 16.65 0 00-.34-3.3zm-384-145.4v-.28c3.55-18.43 13.81-27 32.29-27H384c18.61 0 28.87 8.55 32.27 26.91 0 .13.05.26.07.39l26.93 127.88a4 4 0 01-3.92 4.82H320a15.92 15.92 0 00-16 15.82 48 48 0 11-96 0A15.92 15.92 0 00192 256H72.65a4 4 0 01-3.92-4.82z"></path>
    <path d="M368 160H144a16 16 0 010-32h224a16 16 0 010 32zM384 224H128a16 16 0 010-32h256a16 16 0 010 32z"></path>
  </symbol>
  <symbol xmlns="http://www.w3.org/2000/svg" viewBox="0 0 512 512" id="like">
    <path d="M256 448a32 32 0 01-18-5.57c-78.59-53.35-112.62-89.93-131.39-112.8-40-48.75-59.15-98.8-58.61-153C48.63 114.52 98.46 64 159.08 64c44.08 0 74.61 24.83 92.39 45.51a6 6 0 009.06 0C278.31 88.81 308.84 64 352.92 64c60.62 0 110.45 50.52 111.08 112.64.54 54.21-18.63 104.26-58.61 153-18.77 22.87-52.8 59.45-131.39 112.8a32 32 0 01-18 5.56z"></path>
  </symbol>
  <symbol xmlns="http://www.w3.org/2000/svg" viewBox="0 0 512 512" id="tag">
    <path d="M448 183.8v-123A44.66 44.66 0 00403.29 16H280.36a30.62 30.62 0 00-21.51 8.89L13.09 270.58a44.86 44.86 0 000 63.34l117 117a44.84 44.84 0 0063.33 0l245.69-245.61A30.6 30.6 0 00448 183.8zM352 144a32 32 0 1132-32 32 32 0 01-32 32z"></path>
    <path d="M496 64a16 16 0 00-16 16v127.37L218.69 468.69a16 16 0 1022.62 22.62l262-262A29.84 29.84 0 00512 208V80a16 16 0 00-16-16z"></path>
  </symbol>
  <symbol xmlns="http://www.w3.org/2000/svg" viewBox="0 0 512 512" id="download">
    <path d="M376 160H272v153.37l52.69-52.68a16 16 0 0122.62 22.62l-80 80a16 16 0 01-22.62 0l-80-80a16 16 0 0122.62-22.62L240 313.37V160H136a56.06 56.06 0 00-56 56v208a56.06 56.06 0 0056 56h240a56.06 56.06 0 0056-56V216a56.06 56.06 0 00-56-56zM272 48a16 16 0 00-32 0v112h32z"></path>
  </symbol>
  <symbol xmlns="http://www.w3.org/2000/svg" viewBox="0 0 512 512" id="category">
    <path d="M345.14 480H274a18 18 0 01-18-18v-27.71a31.32 31.32 0 00-9.71-22.77c-7.78-7.59-19.08-11.8-30.89-11.51-21.36.5-39.4 19.3-39.4 41.06V462a18 18 0 01-18 18H87.62A55.62 55.62 0 0132 424.38V354a18 18 0 0118-18h27.71c9.16 0 18.07-3.92 25.09-11a42.06 42.06 0 0012.2-29.92C114.7 273.89 97.26 256 76.91 256H50a18 18 0 01-18-18v-70.38A55.62 55.62 0 0187.62 112h55.24a8 8 0 008-8v-6.48A65.53 65.53 0 01217.54 32c35.49.62 64.36 30.38 64.36 66.33V104a8 8 0 008 8h55.24A54.86 54.86 0 01400 166.86v55.24a8 8 0 008 8h5.66c36.58 0 66.34 29 66.34 64.64 0 36.61-29.39 66.4-65.52 66.4H408a8 8 0 00-8 8v56A54.86 54.86 0 01345.14 480z"></path>
  </symbol>
  <symbol xmlns="http://www.w3.org/2000/svg" viewBox="0 0 512 512" id="date">
    <path d="M480 128a64 64 0 00-64-64h-16V48.45c0-8.61-6.62-16-15.23-16.43A16 16 0 00368 48v16H144V48.45c0-8.61-6.62-16-15.23-16.43A16 16 0 00112 48v16H96a64 64 0 00-64 64v12a4 4 0 004 4h440a4 4 0 004-4zM32 416a64 64 0 0064 64h320a64 64 0 0064-64V179a3 3 0 00-3-3H35a3 3 0 00-3 3zm344-208a24 24 0 11-24 24 24 24 0 0124-24zm0 80a24 24 0 11-24 24 24 24 0 0124-24zm-80-80a24 24 0 11-24 24 24 24 0 0124-24zm0 80a24 24 0 11-24 24 24 24 0 0124-24zm0 80a24 24 0 11-24 24 24 24 0 0124-24zm-80-80a24 24 0 11-24 24 24 24 0 0124-24zm0 80a24 24 0 11-24 24 24 24 0 0124-24zm-80-80a24 24 0 11-24 24 24 24 0 0124-24zm0 80a24 24 0 11-24 24 24 24 0 0124-24z"></path>
  </symbol>
  <symbol xmlns="http://www.w3.org/2000/svg" viewBox="0 0 512 512" id="author">
    <path d="M332.64 64.58C313.18 43.57 286 32 256 32c-30.16 0-57.43 11.5-76.8 32.38-19.58 21.11-29.12 49.8-26.88 80.78C156.76 206.28 203.27 256 256 256s99.16-49.71 103.67-110.82c2.27-30.7-7.33-59.33-27.03-80.6zM432 480H80a31 31 0 01-24.2-11.13c-6.5-7.77-9.12-18.38-7.18-29.11C57.06 392.94 83.4 353.61 124.8 326c36.78-24.51 83.37-38 131.2-38s94.42 13.5 131.2 38c41.4 27.6 67.74 66.93 76.18 113.75 1.94 10.73-.68 21.34-7.18 29.11A31 31 0 01432 480z"></path>
  </symbol>
</svg>
