<svg width="0" height="0" class="hidden">
  <symbol xmlns="http://www.w3.org/2000/svg" viewBox="0 0 512 512" id="about">
    <path d="M332.64 64.58C313.18 43.57 286 32 256 32c-30.16 0-57.43 11.5-76.8 32.38-19.58 21.11-29.12 49.8-26.88 80.78C156.76 206.28 203.27 256 256 256s99.16-49.71 103.67-110.82c2.27-30.7-7.33-59.33-27.03-80.6zM432 480H80a31 31 0 01-24.2-11.13c-6.5-7.77-9.12-18.38-7.18-29.11C57.06 392.94 83.4 353.61 124.8 326c36.78-24.51 83.37-38 131.2-38s94.42 13.5 131.2 38c41.4 27.6 67.74 66.93 76.18 113.75 1.94 10.73-.68 21.34-7.18 29.11A31 31 0 01432 480z"></path>
  </symbol>
  <symbol xmlns="http://www.w3.org/2000/svg" viewBox="0 0 512 512" id="blog">
    <path d="M298.39 248a4 4 0 002.86-6.8l-78.4-79.72a4 4 0 00-6.85 2.81V236a12 12 0 0012 12z"></path>
    <path d="M197 267a43.67 43.67 0 01-13-31v-92h-72a64.19 64.19 0 00-64 64v224a64 64 0 0064 64h144a64 64 0 0064-64V280h-92a43.61 43.61 0 01-31-13zM372 120h70.39a4 4 0 002.86-6.8l-78.4-79.72a4 4 0 00-6.85 2.81V108a12 12 0 0012 12z"></path>
    <path d="M372 152a44.34 44.34 0 01-44-44V16H220a60.07 60.07 0 00-60 60v36h42.12A40.81 40.81 0 01231 124.14l109.16 111a41.11 41.11 0 0111.83 29V400h53.05c32.51 0 58.95-26.92 58.95-60V152z"></path>
  </symbol>
  <symbol xmlns="http://www.w3.org/2000/svg" viewBox="0 0 512 512" id="book">
    <path d="M202.24 74C166.11 56.75 115.61 48.3 48 48a31.36 31.36 0 00-17.92 5.33A32 32 0 0016 79.9V366c0 19.34 13.76 33.93 32 33.93 71.07 0 142.36 6.64 185.06 47a4.11 4.11 0 006.94-3V106.82a15.89 15.89 0 00-5.46-12A143 143 0 00202.24 74zM481.92 53.3A31.33 31.33 0 00464 48c-67.61.3-118.11 8.71-154.24 26a143.31 143.31 0 00-32.31 20.78 15.93 15.93 0 00-5.45 12v337.13a3.93 3.93 0 006.68 2.81c25.67-25.5 70.72-46.82 185.36-46.81a32 32 0 0032-32v-288a32 32 0 00-14.12-26.61z"></path>
  </symbol>
  <symbol xmlns="http://www.w3.org/2000/svg" viewBox="0 0 512 512" id="contact">
    <path d="M391 480c-19.52 0-46.94-7.06-88-30-49.93-28-88.55-53.85-138.21-103.38C116.91 298.77 93.61 267.79 61 208.45c-36.84-67-30.56-102.12-23.54-117.13C45.82 73.38 58.16 62.65 74.11 52a176.3 176.3 0 0128.64-15.2c1-.43 1.93-.84 2.76-1.21 4.95-2.23 12.45-5.6 21.95-2 6.34 2.38 12 7.25 20.86 16 18.17 17.92 43 57.83 52.16 77.43 6.15 13.21 10.22 21.93 10.23 31.71 0 11.45-5.76 20.28-12.75 29.81-1.31 1.79-2.61 3.5-3.87 5.16-7.61 10-9.28 12.89-8.18 18.05 2.23 10.37 18.86 41.24 46.19 68.51s57.31 42.85 67.72 45.07c5.38 1.15 8.33-.59 18.65-8.47 1.48-1.13 3-2.3 4.59-3.47 10.66-7.93 19.08-13.54 30.26-13.54h.06c9.73 0 18.06 4.22 31.86 11.18 18 9.08 59.11 33.59 77.14 51.78 8.77 8.84 13.66 14.48 16.05 20.81 3.6 9.53.21 17-2 22-.37.83-.78 1.74-1.21 2.75a176.49 176.49 0 01-15.29 28.58c-10.63 15.9-21.4 28.21-39.38 36.58A67.42 67.42 0 01391 480z"></path>
  </symbol>
  <symbol xmlns="http://www.w3.org/2000/svg" viewBox="0 0 512 512" id="home">
    <path d="M261.56 101.28a8 8 0 00-11.06 0L66.4 277.15a8 8 0 00-2.47 5.79L63.9 448a32 32 0 0032 32H192a16 16 0 0016-16V328a8 8 0 018-8h80a8 8 0 018 8v136a16 16 0 0016 16h96.06a32 32 0 0032-32V282.94a8 8 0 00-2.47-5.79z"></path>
    <path d="M490.91 244.15l-74.8-71.56V64a16 16 0 00-16-16h-48a16 16 0 00-16 16v32l-57.92-55.38C272.77 35.14 264.71 32 256 32c-8.68 0-16.72 3.14-22.14 8.63l-212.7 203.5c-6.22 6-7 15.87-1.34 22.37A16 16 0 0043 267.56L250.5 69.28a8 8 0 0111.06 0l207.52 198.28a16 16 0 0022.59-.44c6.14-6.36 5.63-16.86-.76-22.97z"></path>
  </symbol>
</svg>
